<?xml version="1.0" standalone="no"?>
<!DOCTYPE svg PUBLIC "-//W3C//DTD SVG 20010904//EN"
 "http://www.w3.org/TR/2001/REC-SVG-20010904/DTD/svg10.dtd">
<svg version="1.0" xmlns="http://www.w3.org/2000/svg"
 width="310.000000pt" height="145.000000pt" viewBox="0 0 310.000000 145.000000"
 preserveAspectRatio="xMidYMid meet">
<metadata>
Created by potrace 1.16, written by Peter Selinger 2001-2019
</metadata>
<g transform="translate(0.000000,145.000000) scale(0.100000,-0.100000)"
fill="#000000" stroke="none">
<path d="M518 843 c-53 -94 -101 -193 -93 -193 2 0 0 -13 -5 -30 -7 -23 -4
-35 10 -52 23 -28 39 -16 43 29 1 17 6 29 11 25 5 -3 6 3 3 13 -5 11 -1 23 10
32 10 8 12 11 4 7 -9 -5 -12 -3 -7 4 12 20 35 14 94 -26 89 -59 157 -92 188
-91 29 0 29 0 5 10 -48 19 -181 134 -181 156 0 8 4 12 9 8 9 -5 65 15 101 36
8 5 26 14 40 19 60 25 70 33 70 62 0 16 -6 31 -13 34 -7 2 -60 -18 -117 -45
-58 -27 -107 -47 -109 -45 -1 1 7 21 20 44 21 38 22 43 9 67 -8 15 -20 28 -26
30 -5 2 -35 -41 -66 -94z"/>
<path d="M939 883 c-17 -32 -51 -102 -75 -157 -36 -84 -41 -103 -32 -127 5
-16 14 -32 20 -35 14 -9 49 27 46 46 -3 19 32 100 44 100 10 0 24 -14 101
-103 66 -75 102 -90 155 -63 17 9 55 16 84 16 30 0 75 9 103 20 43 18 45 20
15 14 l-35 -6 45 25 45 25 14 -22 c16 -24 41 -46 53 -46 4 0 8 11 8 25 0 14 5
24 11 23 5 -2 29 32 52 74 40 75 84 134 93 126 2 -2 -5 -26 -15 -54 -22 -57
-14 -94 19 -94 23 0 72 34 125 87 46 46 60 42 33 -9 -12 -24 -23 -47 -24 -53
-2 -5 -8 -25 -16 -43 -11 -29 -10 -34 7 -51 34 -33 60 -35 73 -6 7 14 12 35
12 46 0 11 7 30 15 43 9 13 15 28 14 32 -4 23 3 43 21 64 11 13 20 28 20 34 0
21 -40 76 -55 76 -16 0 -76 -28 -85 -39 -3 -4 -18 -13 -35 -21 -16 -8 -33 -16
-37 -18 -5 -2 -8 6 -8 17 0 38 -32 91 -54 90 -29 -1 -151 -139 -190 -213 l-31
-60 -52 -2 c-29 -2 -61 -8 -72 -14 -11 -5 -38 -10 -60 -10 -40 0 -40 0 -34 33
8 46 22 56 94 69 35 6 67 14 71 18 4 3 1 16 -8 29 -16 23 -38 24 -85 6 -10 -4
-19 0 -23 10 -3 9 -2 13 3 10 5 -3 12 -1 15 4 3 5 40 16 81 26 41 9 78 21 81
27 4 6 -2 8 -17 4 -13 -3 -18 -3 -11 0 24 11 11 23 -30 26 -38 3 -43 6 -41 25
2 16 -4 24 -20 29 -29 7 -96 -34 -97 -58 0 -10 -17 -51 -37 -90 -30 -57 -38
-84 -38 -125 0 -49 -2 -53 -23 -53 -35 0 -72 23 -125 78 l-49 49 29 12 c72 30
125 76 121 106 -5 31 -54 50 -100 38 -33 -9 -38 -8 -38 6 0 17 -18 41 -31 41
-4 0 -22 -26 -40 -57z"/>
<path d="M2106 872 c-112 -172 -134 -258 -77 -300 l29 -21 8 37 c4 20 8 43 7
50 0 6 3 12 8 12 5 0 6 7 3 15 -4 8 -1 15 7 15 7 0 10 3 6 6 -3 3 3 15 13 26
10 11 35 53 56 93 34 68 36 76 24 104 -7 17 -19 31 -26 31 -8 0 -34 -30 -58
-68z"/>
<path d="M2565 900 c-4 -6 -10 -8 -15 -5 -5 3 -19 -9 -31 -27 l-23 -33 24 20
c21 18 21 16 -4 -17 -16 -21 -32 -38 -37 -38 -5 0 -15 -11 -21 -25 -15 -34
-25 -31 -32 10 -6 30 -58 95 -77 95 -12 0 -116 -134 -138 -177 -24 -48 -27
-91 -8 -117 26 -36 50 -15 92 81 22 51 48 100 58 110 16 16 17 13 17 -64 0
-101 9 -127 51 -142 18 -6 33 -10 34 -9 1 2 9 24 19 51 10 26 24 54 32 61 8 8
14 23 14 34 0 25 57 110 84 124 11 6 29 19 40 30 18 19 18 20 0 33 -22 17 -70
19 -79 5z"/>
</g>
</svg>
